REM DIRINDEX 1\8,1\2\11,1\3\12,1\3\14,1\5\15,1\5\16,1\6\17,1\6\18,1\4\19,1\4\20,1\4\21,1\4\22,1\7\23,1\7\24,1\7\25,1\2\9\26,1\2\9\27,1\2\10\28,1\2\10\29,1\2\10\30,1\2\10\31,1\2\10\32,1\3\13\33,1\3\13\34,1\3\13\35
REM DIRNAME folder01,folder02,folder03,folder04,folder05,folder06,folder07,folder08,folder09,folder10,folder11,folder12,folder13,folder14,folder15,folder16,folder17,folder18,folder19,folder20,folder21,folder22,folder23,folder24,folder25,folder26,folder27,folder28,folder29,folder30,folder31,folder32,folder33,folder34,folder35
TITLE ""
FILE "74 074_UNIT1_WARM-UP-40.mp3" MP3
  TRACK 01 AUDIO
    TITLE "14:cjc123_7145"
    INDEX 01 00:00:00
  TRACK 02 AUDIO
    TITLE "0:"
    INDEX 01 00:02:69
  TRACK 03 AUDIO
    TITLE "12:cjc123_7146"
    INDEX 01 00:03:47
  TRACK 04 AUDIO
    TITLE "0:"
    INDEX 01 00:04:44
  TRACK 05 AUDIO
    TITLE "12:cjc123_7147"
    INDEX 01 00:05:26
  TRACK 06 AUDIO
    TITLE "0:"
    INDEX 01 00:06:35
  TRACK 07 AUDIO
    TITLE "12:cjc123_7148"
    INDEX 01 00:07:05
  TRACK 08 AUDIO
    TITLE "0:"
    INDEX 01 00:08:09
  TRACK 09 AUDIO
    TITLE "12:cjc123_7149"
    INDEX 01 00:08:60
  TRACK 10 AUDIO
    TITLE "0:"
    INDEX 01 00:09:47
  TRACK 11 AUDIO
    TITLE "12:cjc123_7150"
    INDEX 01 00:10:27
  TRACK 12 AUDIO
    TITLE "0:"
    INDEX 01 00:11:25
  TRACK 13 AUDIO
    TITLE "12:cjc123_7151"
    INDEX 01 00:12:05
  TRACK 14 AUDIO
    TITLE "0:"
    INDEX 01 00:13:12
  TRACK 15 AUDIO
    TITLE "12:cjc123_7152"
    INDEX 01 00:13:59
  TRACK 16 AUDIO
    TITLE "0:"
    INDEX 01 00:14:68
  TRACK 17 AUDIO
    TITLE "12:cjc123_7153"
    INDEX 01 00:15:42
  TRACK 18 AUDIO
    TITLE "0:"
    INDEX 01 00:16:38
  TRACK 19 AUDIO
    TITLE "12:cjc123_7154"
    INDEX 01 00:17:10
  TRACK 20 AUDIO
    TITLE "0:"
    INDEX 01 00:18:29
  TRACK 21 AUDIO
    TITLE "12:cjc123_7155"
    INDEX 01 00:19:05
  TRACK 22 AUDIO
    TITLE "0:"
    INDEX 01 00:20:16
  TRACK 23 AUDIO
    TITLE "12:cjc123_7156"
    INDEX 01 00:20:65
  TRACK 24 AUDIO
    TITLE "0:"
    INDEX 01 00:21:58
  TRACK 25 AUDIO
    TITLE "12:cjc123_7157"
    INDEX 01 00:22:34
  TRACK 26 AUDIO
    TITLE "0:"
    INDEX 01 00:23:36
  TRACK 27 AUDIO
    TITLE "12:cjc123_7158"
    INDEX 01 00:24:14
  TRACK 28 AUDIO
    TITLE "0:"
    INDEX 01 00:25:23
  TRACK 29 AUDIO
    TITLE "12:cjc123_7159"
    INDEX 01 00:26:03
  TRACK 30 AUDIO
    TITLE "0:"
    INDEX 01 00:27:08
  TRACK 31 AUDIO
    TITLE "12:cjc123_7160"
    INDEX 01 00:27:61
  TRACK 32 AUDIO
    TITLE "0:"
    INDEX 01 00:28:53
  TRACK 33 AUDIO
    TITLE "12:cjc123_7161"
    INDEX 01 00:29:34
  TRACK 34 AUDIO
    TITLE "0:"
    INDEX 01 00:30:34
  TRACK 35 AUDIO
    TITLE "12:cjc123_7162"
    INDEX 01 00:31:08
  TRACK 36 AUDIO
    TITLE "0:"
    INDEX 01 00:32:23
  TRACK 37 AUDIO
    TITLE "12:cjc123_7163"
    INDEX 01 00:33:03
  TRACK 38 AUDIO
    TITLE "0:"
    INDEX 01 00:34:22
  TRACK 39 AUDIO
    TITLE "12:cjc123_7164"
    INDEX 01 00:34:73
  TRACK 40 AUDIO
    TITLE "0:"
    INDEX 01 00:36:13
  TRACK 41 AUDIO
    TITLE "12:cjc123_7165"
    INDEX 01 00:36:66
  TRACK 42 AUDIO
    TITLE "0:"
    INDEX 01 00:37:69
  TRACK 43 AUDIO
    TITLE "12:cjc123_7166"
    INDEX 01 00:38:45
  TRACK 44 AUDIO
    TITLE "0:"
    INDEX 01 00:39:58
  TRACK 45 AUDIO
    TITLE "12:cjc123_7167"
    INDEX 01 00:40:34
  TRACK 46 AUDIO
    TITLE "0:"
    INDEX 01 00:41:59
  TRACK 47 AUDIO
    TITLE "12:cjc123_7168"
    INDEX 01 00:42:29
  TRACK 48 AUDIO
    TITLE "0:"
    INDEX 01 00:43:23
  TRACK 49 AUDIO
    TITLE "12:cjc123_7169"
    INDEX 01 00:44:12
  TRACK 50 AUDIO
    TITLE "0:"
    INDEX 01 00:45:22
  TRACK 51 AUDIO
    TITLE "12:cjc123_7170"
    INDEX 01 00:45:73
  TRACK 52 AUDIO
    TITLE "0:"
    INDEX 01 00:47:13
  TRACK 53 AUDIO
    TITLE "12:cjc123_7171"
    INDEX 01 00:47:74
  TRACK 54 AUDIO
    TITLE "0:"
    INDEX 01 00:49:14
  TRACK 55 AUDIO
    TITLE "12:cjc123_7172"
    INDEX 01 00:49:69
  TRACK 56 AUDIO
    TITLE "0:"
    INDEX 01 00:51:05
  TRACK 57 AUDIO
    TITLE "12:cjc123_7173"
    INDEX 01 00:51:69
  TRACK 58 AUDIO
    TITLE "0:"
    INDEX 01 00:53:11
  TRACK 59 AUDIO
    TITLE "12:cjc123_7174"
    INDEX 01 00:53:62
  TRACK 60 AUDIO
    TITLE "0:"
    INDEX 01 00:54:68
  TRACK 61 AUDIO
    TITLE "12:cjc123_7175"
    INDEX 01 00:55:42
  TRACK 62 AUDIO
    TITLE "0:"
    INDEX 01 00:56:49
  TRACK 63 AUDIO
    TITLE "12:cjc123_7176"
    INDEX 01 00:57:17
  TRACK 64 AUDIO
    TITLE "0:"
    INDEX 01 00:58:20
  TRACK 65 AUDIO
    TITLE "12:cjc123_7177"
    INDEX 01 00:59:06
  TRACK 66 AUDIO
    TITLE "0:"
    INDEX 01 01:00:08
  TRACK 67 AUDIO
    TITLE "12:cjc123_7178"
    INDEX 01 01:00:59
  TRACK 68 AUDIO
    TITLE "0:"
    INDEX 01 01:02:08
  TRACK 69 AUDIO
    TITLE "12:cjc123_7179"
    INDEX 01 01:02:59
  TRACK 70 AUDIO
    TITLE "0:"
    INDEX 01 01:03:59
  TRACK 71 AUDIO
    TITLE "12:cjc123_7180"
    INDEX 01 01:04:48
  TRACK 72 AUDIO
    TITLE "0:"
    INDEX 01 01:05:50
  TRACK 73 AUDIO
    TITLE "12:cjc123_7181"
    INDEX 01 01:06:34
  TRACK 74 AUDIO
    TITLE "0:"
    INDEX 01 01:07:43
  TRACK 75 AUDIO
    TITLE "12:cjc123_7182"
    INDEX 01 01:08:23
  TRACK 76 AUDIO
    TITLE "0:"
    INDEX 01 01:09:28
  TRACK 77 AUDIO
    TITLE "12:cjc123_7183"
    INDEX 01 01:10:06
  TRACK 78 AUDIO
    TITLE "0:"
    INDEX 01 01:11:17
  TRACK 79 AUDIO
    TITLE "12:cjc123_7184"
    INDEX 01 01:11:72
  TRACK 80 AUDIO
    TITLE "0:"
    INDEX 01 01:13:12
  TRACK 81 AUDIO
    TITLE "12:cjc123_7185"
    INDEX 01 01:13:71
  TRACK 82 AUDIO
    TITLE "0:"
    INDEX 01 01:15:29
